<svg width="83" height="72" viewBox="0 0 83 72" fill="none" xmlns="http://www.w3.org/2000/svg">
<path d="M0 21.5877C0.210449 20.4929 0.365479 19.3842 0.640137 18.306C2.80615 9.8058 8.03784 4.0191 16.3118 1.2534C23.1821 -1.0433 29.8481 -0.160897 36.0134 3.6936C37.8066 4.8142 39.3896 6.2735 41.1357 7.6289C41.186 7.5839 41.3701 7.439 41.5315 7.2723C44.7922 3.904 48.6995 1.6238 53.2715 0.660697C61.0151 -0.970498 67.9812 0.774498 73.9924 5.9665C78.0674 9.4857 80.6426 13.9587 81.5815 19.2632C82.9988 27.2692 80.958 34.3611 75.261 40.1716C66.0212 49.5946 56.6487 58.8872 47.3174 68.2196C46.489 69.0484 45.6003 69.8343 44.6548 70.5229C41.8167 72.5914 39.5874 72.4928 36.9214 70.1935C35.6084 69.0603 34.3271 67.8842 33.1003 66.6578C24.7844 58.3494 16.4893 50.0199 8.1814 41.7023C5.96558 39.4843 3.92041 37.1493 2.51221 34.3009C1.28101 31.8117 0.506104 29.2021 0.155762 26.4549C0.125977 26.2214 0.0527344 25.9926 0 25.7617C0 24.3706 0 22.9788 0 21.5877Z" fill="#020304"/>
</svg>
