<svg width="28" height="28" viewBox="0 0 28 28" fill="none" xmlns="http://www.w3.org/2000/svg">
<path d="M13.9997 6.78857C10.0238 6.78857 6.78857 10.0238 6.78857 13.9997C6.78857 17.9761 10.0238 21.2113 13.9997 21.2113C17.9761 21.2113 21.2113 17.9761 21.2113 13.9997C21.2113 10.0238 17.9761 6.78857 13.9997 6.78857ZM13.9997 18.1646C11.7045 18.1646 9.83533 16.2959 9.83533 13.9997C9.83533 11.7045 11.7045 9.83624 13.9997 9.83624C16.2959 9.83624 18.1637 11.7045 18.1637 13.9997C18.1637 16.2959 16.2959 18.1646 13.9997 18.1646Z" fill="#1D1D1B"/>
<path d="M21.4434 4.86743C20.502 4.86743 19.7366 5.63282 19.7366 6.57372C19.7366 7.51449 20.502 8.27988 21.4434 8.27988C22.3842 8.27988 23.1496 7.51449 23.1496 6.57372C23.1496 5.63282 22.3842 4.86743 21.4434 4.86743Z" fill="#1D1D1B"/>
<path d="M20.9369 0H7.06322C3.16837 0 0 3.16838 0 7.06323V20.9368C0 24.8321 3.16837 28 7.06322 28H20.9369C24.8321 28 28 24.8321 28 20.9368V7.06323C28 3.16838 24.8321 0 20.9369 0ZM24.9531 20.9368C24.9531 23.1514 23.1514 24.9531 20.9369 24.9531H7.06322C4.84905 24.9531 3.04733 23.1514 3.04733 20.9368V7.06323C3.04733 4.84905 4.84905 3.04733 7.06322 3.04733H20.9369C23.1514 3.04733 24.9531 4.84905 24.9531 7.06323V20.9368Z" fill="#1D1D1B"/>
</svg>
