<svg width="840" height="97" viewBox="0 0 840 97" fill="none" xmlns="http://www.w3.org/2000/svg">
<path d="M485.386 59.8737C484.398 61.1578 483.181 62.3162 481.739 63.3535C480.296 64.3883 478.7 65.2749 476.948 66.0208C475.196 66.7641 473.301 67.3395 471.261 67.7471C469.223 68.157 467.108 68.3596 464.926 68.3596C461.712 68.3596 458.682 67.9225 455.838 67.0482C452.996 66.1739 450.512 64.9859 448.39 63.4819C446.266 61.9803 444.59 60.2243 443.351 58.2115C442.118 56.1987 441.5 54.0549 441.5 51.7803C441.5 49.5057 442.118 47.3619 443.351 45.3491C444.59 43.3363 446.266 41.5803 448.39 40.0787C450.512 38.5746 452.996 37.3867 455.838 36.5125C458.682 35.6381 461.712 35.1986 464.926 35.1986C467.108 35.1986 469.223 35.4035 471.261 35.811C473.301 36.221 475.196 36.7964 476.948 37.5399C478.7 38.2833 480.296 39.1748 481.739 40.2097C483.181 41.2444 484.398 42.3904 485.386 43.6425L477.288 45.9616C476.629 45.2627 475.855 44.6058 474.97 43.9932C474.084 43.3807 473.103 42.8399 472.035 42.3755C470.962 41.9088 469.828 41.5433 468.634 41.2815C467.437 41.0197 466.203 40.8863 464.926 40.8863C462.865 40.8863 460.938 41.1876 459.145 41.7853C457.354 42.383 455.797 43.1758 454.48 44.1661C453.161 45.159 452.11 46.3173 451.327 47.6459C450.543 48.9722 450.152 50.3528 450.152 51.7803C450.152 53.2399 450.543 54.623 451.327 55.9368C452.11 57.2482 453.161 58.4017 454.48 59.392C455.797 60.3849 457.354 61.1801 459.145 61.7778C460.938 62.3755 462.865 62.6743 464.926 62.6743C466.203 62.6743 467.437 62.5434 468.634 62.2791C469.828 62.0173 470.962 61.6519 472.035 61.1875C473.103 60.7182 474.084 60.1725 474.97 59.5451C475.855 58.9178 476.629 58.256 477.288 57.5545L485.386 59.8737Z" fill="#161615"/>
<path d="M541.574 35.7246V67.7471H532.919V55.0181H510.605V67.7471H501.95V35.7246H510.605V49.5946H532.919V35.7246H541.574Z" fill="#161615"/>
<path d="M569.944 41.1481V49.155H591.828V54.7119H569.944V62.2372H594.609V67.7471H561.29V35.7246H594.609V41.1481H569.944Z" fill="#161615"/>
<path d="M622.052 67.7471H613.397V35.7246H633.954C636.266 35.7246 638.383 35.9938 640.302 36.5347C642.222 37.0755 643.862 37.8337 645.225 38.8093C646.587 39.7873 647.651 40.953 648.415 42.3089C649.176 43.6647 649.561 45.1441 649.561 46.7495C649.561 49.1698 648.704 51.2839 646.989 53.0917C645.276 54.902 642.996 56.1987 640.147 56.9865C643.947 60.5454 647.704 64.1314 651.412 67.7471H641.091C639.283 66.085 637.516 64.408 635.792 62.7163C634.069 61.0245 632.341 59.3055 630.616 57.5545H622.052V67.7471ZM622.052 52.1285H633.945C634.723 52.1285 635.534 52.0223 636.375 51.8026C637.22 51.5827 637.969 51.2468 638.626 50.7974C639.283 50.343 639.828 49.7823 640.259 49.1105C640.689 48.4413 640.906 47.6534 640.906 46.7495C640.906 46.2827 640.823 45.7294 640.66 45.0873C640.495 44.4452 640.166 43.8327 639.675 43.2499C639.181 42.667 638.482 42.1706 637.577 41.7606C636.675 41.3531 635.463 41.1481 633.945 41.1481H622.052V52.1285Z" fill="#161615"/>
<path d="M676.444 67.7471H667.79V35.7246H688.347C690.661 35.7246 692.775 35.9938 694.695 36.5347C696.615 37.0755 698.255 37.8337 699.617 38.8093C700.98 39.7873 702.043 40.953 702.807 42.3089C703.569 43.6647 703.953 45.1441 703.953 46.7495C703.953 49.1698 703.097 51.2839 701.381 53.0917C699.668 54.902 697.389 56.1987 694.539 56.9865C698.34 60.5454 702.097 64.1314 705.805 67.7471H695.483C693.676 66.085 691.909 64.408 690.184 62.7163C688.461 61.0245 686.734 59.3055 685.011 57.5545H676.444V67.7471ZM676.444 52.1285H688.337C689.116 52.1285 689.926 52.0223 690.768 51.8026C691.612 51.5827 692.362 51.2468 693.019 50.7974C693.676 50.343 694.221 49.7823 694.651 49.1105C695.082 48.4413 695.298 47.6534 695.298 46.7495C695.298 46.2827 695.216 45.7294 695.053 45.0873C694.887 44.4452 694.559 43.8327 694.067 43.2499C693.573 42.667 692.875 42.1706 691.97 41.7606C691.067 41.3531 689.856 41.1481 688.337 41.1481H676.444V52.1285Z" fill="#161615"/>
<path d="M732.075 67.7471H723.423V35.769H732.075V67.7471Z" fill="#161615"/>
<path d="M761.747 41.1481V49.155H783.628V54.7119H761.747V62.2372H786.409V67.7471H753.092V35.7246H786.409V41.1481H761.747Z" fill="#161615"/>
<path d="M803.407 63.5485L808.105 58.6486C810.371 59.7576 812.711 60.7133 815.12 61.5135C817.531 62.3162 820.057 62.7163 822.692 62.7163C824.094 62.7163 825.33 62.5928 826.403 62.3458C827.473 62.0989 828.381 61.7778 829.123 61.3826C829.863 60.9899 830.42 60.538 830.79 60.0267C831.162 59.5154 831.347 59.0141 831.347 58.5177C831.347 57.8781 831.069 57.3298 830.512 56.8753C829.957 56.4258 829.213 56.053 828.288 55.7615C827.361 55.47 826.269 55.2231 825.011 55.0181C823.755 54.8131 822.446 54.623 821.086 54.4476C820.181 54.3315 819.13 54.1932 817.933 54.0352C816.738 53.8721 815.502 53.6523 814.225 53.3782C812.947 53.1016 811.692 52.7361 810.456 52.2817C809.218 51.8322 808.105 51.2617 807.118 50.5776C806.127 49.8909 805.334 49.0759 804.736 48.1276C804.14 47.1792 803.84 46.0629 803.84 44.7811C803.84 42.9165 804.376 41.3605 805.449 40.1232C806.519 38.8834 807.891 37.9053 809.558 37.1916C811.227 36.4778 813.081 35.9741 815.12 35.6826C817.162 35.3912 819.13 35.2455 821.023 35.2455C822.918 35.2455 824.609 35.3319 826.094 35.5048C827.575 35.6826 828.957 35.937 830.235 36.2704C831.512 36.6063 832.758 37.0286 833.974 37.5399C835.191 38.0511 836.498 38.6562 837.899 39.3551L833.077 44.1661C830.936 43.1165 828.875 42.3163 826.897 41.7606C824.918 41.2074 822.838 40.9308 820.653 40.9308C819.911 40.9308 819.067 40.995 818.12 41.1284C817.171 41.2593 816.276 41.4692 815.432 41.7606C814.585 42.0546 813.887 42.4274 813.329 42.8769C812.772 43.3289 812.495 43.8771 812.495 44.5168C812.495 45.159 812.823 45.6998 813.483 46.137C814.142 46.5741 814.986 46.9396 816.018 47.231C817.047 47.5225 818.181 47.7695 819.417 47.9744C820.653 48.1769 821.85 48.382 823.004 48.587C823.867 48.7327 824.887 48.8784 826.062 49.0241C827.237 49.1698 828.451 49.3748 829.709 49.6365C830.967 49.9008 832.213 50.2491 833.449 50.6862C834.685 51.1234 835.787 51.6865 836.756 52.3705C837.724 53.0571 838.507 53.9019 839.104 54.907C839.702 55.9147 840.001 57.1322 840.001 58.5622C840.001 60.2243 839.588 61.6666 838.765 62.8916C837.941 64.1166 836.765 65.1317 835.24 65.9319C833.717 66.7345 831.901 67.3395 829.802 67.7471C827.7 68.157 825.371 68.3596 822.816 68.3596C820.468 68.3596 818.398 68.2361 816.607 67.9891C814.814 67.7421 813.174 67.4062 811.692 66.9839C810.205 66.5592 808.806 66.0554 807.488 65.4725C806.169 64.8896 804.809 64.2475 803.407 63.5485Z" fill="#161615"/>
<path d="M281.587 39.286C279.028 37.2929 275.504 36.3223 270.823 36.3223C267.624 36.3223 264.799 36.9916 262.443 38.303C260.266 39.4317 258.611 40.8863 257.414 42.7263C255.307 38.4759 250.811 36.3223 244.03 36.3223C238.682 36.3223 234.555 38.0757 231.745 41.5383V37.1373H228.698V68.2929H231.745V48.908C231.745 46.0283 232.915 43.6968 235.334 41.7656C237.64 39.8046 240.567 38.8093 244.03 38.8093C251.799 38.8093 255.575 41.847 255.575 48.093V68.2929H258.704V48.093C258.704 45.4207 259.816 43.2795 262.115 41.5408C264.368 39.728 267.297 38.8093 270.823 38.8093C274.886 38.8093 277.921 39.6638 279.835 41.3457C281.57 42.9066 282.451 45.1762 282.451 48.093V68.2929H285.5V48.093C285.5 44.2674 284.183 41.3037 281.587 39.286Z" fill="#161615"/>
<path d="M366.102 53.4029C364.068 52.5632 360.272 51.6346 354.815 50.6393C350.676 49.881 347.413 49.0636 345.634 48.3425C343.06 47.2706 341.858 46.0085 341.858 44.3712C341.858 42.835 342.909 41.6248 345.182 40.553C347.469 39.3798 350.318 38.8093 353.897 38.8093C358.087 38.8093 361.398 39.5082 363.725 40.8789C365.683 42.0989 366.895 43.7957 367.43 46.0654L367.528 46.4852H370.593L370.447 45.8233C369.077 39.5181 363.51 36.3223 353.897 36.3223C349.754 36.3223 346.369 37.0064 343.561 38.4117C339.634 40.259 338.812 42.672 338.812 44.3712C338.812 46.9446 340.498 48.9698 343.824 50.3973C345.846 51.2666 349.437 52.2051 354.209 53.1041C359.111 54.0253 362.7 54.865 364.313 55.4677C367.119 56.5148 368.484 57.9053 368.484 59.7205C368.484 64.2994 363.961 66.6209 355.046 66.6209C350.557 66.6209 347.16 65.9985 344.941 64.7661C342.508 63.4744 341.094 61.3974 340.617 58.414L340.547 57.9571H337.41L337.503 58.5844C338.532 65.5663 344.435 69.1079 355.046 69.1079C366.039 69.1079 371.61 65.9492 371.61 59.7205C371.61 57.0087 369.756 54.8798 366.102 53.4029Z" fill="#161615"/>
<path d="M418.032 53.4029C416 52.5632 412.202 51.6321 406.747 50.6393C402.613 49.881 399.35 49.0636 397.569 48.3425C394.993 47.2706 393.793 46.0085 393.793 44.3712C393.793 42.835 394.844 41.6248 397.114 40.553C399.404 39.3798 402.253 38.8093 405.83 38.8093C410.022 38.8093 413.331 39.5082 415.66 40.8789C417.616 42.0989 418.828 43.7957 419.363 46.0654L419.463 46.4852H422.528L422.382 45.8233C421.013 39.5181 415.443 36.3223 405.83 36.3223C401.686 36.3223 398.302 37.0064 395.494 38.4117C391.569 40.259 390.747 42.672 390.747 44.3712C390.747 46.9446 392.433 48.9722 395.759 50.3973C397.781 51.2666 401.37 52.2051 406.144 53.1041C412.433 54.287 415.11 55.0428 416.246 55.4677C419.054 56.5148 420.416 57.9053 420.416 59.7205C420.416 64.2994 415.896 66.6209 406.983 66.6209C402.492 66.6209 399.093 65.9985 396.874 64.7661C394.445 63.4769 393.032 61.3974 392.552 58.414L392.479 57.9571H389.345L389.438 58.5844C390.467 65.5663 396.37 69.1079 406.983 69.1079C417.974 69.1079 423.545 65.9492 423.545 59.7205C423.545 57.0087 421.689 54.8798 418.032 53.4029Z" fill="#161615"/>
<rect x="311.203" y="37.0192" width="3.04722" height="31.1564" fill="#161615"/>
<path d="M312.727 26.2606C311.293 26.2606 310.128 27.4436 310.128 28.8983C310.128 30.353 311.293 31.5359 312.727 31.5359C314.16 31.5359 315.328 30.353 315.328 28.8983C315.328 27.4436 314.16 26.2606 312.727 26.2606Z" fill="#161615"/>
<path d="M15.012 46.0406C15.2698 20.5679 34.8176 0 58.8934 0C82.9716 0 102.517 20.5679 102.777 46.0406H15.012Z" fill="#C60046"/>
<path d="M87.7647 50.9579C87.5043 76.4331 67.959 97.001 43.8834 97.001C19.8052 97.001 0.259888 76.4331 -0.000488281 50.9579H87.7647Z" fill="#C60046"/>
<path d="M108.729 46.0406C108.989 20.5679 128.534 0 152.612 0C176.688 0 196.233 20.5679 196.494 46.0406H108.729Z" fill="#C60046"/>
<path d="M181.484 50.9579C181.224 76.4331 161.678 97.001 137.6 97.001C113.524 97.001 93.9791 76.4331 93.7188 50.9579H181.484Z" fill="#C60046"/>
<path d="M23.175 40.8617H36.3358C36.3358 40.8617 32.1533 13.0698 59.8374 4.92218C59.8374 4.92218 27.8759 6.19409 23.175 40.8617Z" fill="#E04971"/>
<path d="M117.49 40.8617H130.651C130.651 40.8617 126.469 13.0698 154.15 4.92218C154.15 4.92218 122.191 6.19409 117.49 40.8617Z" fill="#E04971"/>
<path d="M5.44971 55.8973H27.1702L15.0119 62.2767C15.0119 62.2767 18.4377 84.8154 32.6837 90.9822C32.6837 90.9822 9.01184 83.5386 5.44971 55.8973Z" fill="#E04971"/>
<path d="M100.872 55.8973H126.741L110.432 62.2767C110.432 62.2767 113.86 84.8154 128.104 90.9822C128.104 90.9822 104.432 83.5386 100.872 55.8973Z" fill="#E04971"/>
<path d="M48.796 8.57733C47.341 9.73322 45.9005 10.7977 44.4724 11.872C43.0441 12.9438 41.6402 14.0206 40.2509 15.1122C38.8567 16.194 37.499 17.3177 36.1462 18.4661C34.7618 19.5948 33.4868 20.8297 32.0391 22.0151C32.7642 20.2962 33.7496 18.6761 34.9491 17.261C36.1364 15.8285 37.4771 14.522 38.9394 13.3909C40.3969 12.2498 41.954 11.2471 43.5989 10.4173C45.2461 9.59979 46.9711 8.91327 48.796 8.57733Z" fill="#F8B0BD"/>
<path d="M142.452 8.74036C140.997 9.89618 139.556 10.9631 138.128 12.0374C136.7 13.1069 135.296 14.1861 133.907 15.2753C132.51 16.3594 131.152 17.4832 129.8 18.6317C128.417 19.7603 127.143 20.9952 125.692 22.1806C126.417 20.4617 127.403 18.8416 128.605 17.4239C129.792 15.9915 131.13 14.6874 132.595 13.5539C134.053 12.4128 135.61 11.4102 137.255 10.5803C138.899 9.76282 140.624 9.07867 142.452 8.74036Z" fill="#F8B0BD"/>
</svg>
