<svg width="140" height="39" viewBox="0 0 140 39" fill="none" xmlns="http://www.w3.org/2000/svg">
<path opacity="0.2" d="M78.0848 39.0005V23.9189H83.1916L83.9563 18.0161H78.0848V14.2559C78.0848 12.551 78.5602 11.3887 81.0162 11.3887L84.1287 11.3877V6.12305C83.5871 6.052 81.7293 5.89136 79.5666 5.89136C75.0531 5.89136 71.963 8.63477 71.963 13.6711V18.0161H66.8747V23.9189H71.963V39.0005H53.1989C52.0035 39.0005 51.0362 38.0359 51.0362 36.8474V2.1543C51.0362 0.96582 52.0045 0.00219727 53.1989 0.00219727H88.0499C89.2443 0.00219727 90.2117 0.96582 90.2117 2.1543V36.8474C90.2117 38.0359 89.2443 39.0005 88.0499 39.0005H78.0848ZM9.88208 39.0005C4.43335 39.0005 -0.000183105 34.5874 -0.000183105 29.1631V9.83984C-0.000183105 4.41431 4.43335 0.00219727 9.88208 0.00219727H29.294C34.7437 0.00219727 39.1763 4.41431 39.1763 9.83984V29.1631C39.1763 34.5874 34.7437 39.0005 29.294 39.0005H9.88208ZM4.26385 9.83984V29.1631C4.26385 32.2473 6.7851 34.7559 9.88208 34.7559H29.294C32.3919 34.7559 34.9131 32.2473 34.9131 29.1631V9.83984C34.9131 6.75537 32.3919 4.24585 29.294 4.24585H9.88208C6.7851 4.24585 4.26385 6.75537 4.26385 9.83984ZM115.085 38.1606C115.707 36.6311 116.415 35.123 116.933 33.5518C117.453 31.9746 117.786 30.335 118.177 28.8162C118.512 29.0977 118.85 29.3967 119.204 29.6746C121.043 31.1211 123.123 31.2615 125.302 30.7402C127.618 30.1858 129.448 28.8784 130.804 26.9575C133.095 23.7075 133.904 20.0308 133.35 16.1624C132.776 12.1621 130.397 9.26685 126.667 7.80957C121.047 5.61377 115.718 6.35303 111.102 10.3774C107.553 13.4734 106.36 18.7224 108.067 22.8083C108.659 24.2249 109.594 25.3374 111.009 26.0046C111.726 26.3438 112.031 26.2053 112.237 25.46C112.254 25.4036 112.272 25.3489 112.293 25.2954C112.69 24.252 112.598 23.3948 111.89 22.3875C110.602 20.552 110.832 18.4272 111.453 16.3911C112.632 12.5315 116.097 9.95459 120.161 9.9187C121.249 9.90796 122.37 10.0015 123.424 10.2566C126.559 11.0186 128.583 13.4326 128.786 16.6328C128.949 19.199 128.546 21.6929 127.425 24.0369C126.871 25.197 126.137 26.2288 125.047 26.9583C124.023 27.6453 122.903 27.9219 121.688 27.6052C120.013 27.1697 119.064 25.6492 119.487 23.9802C119.926 22.252 120.494 20.5549 120.924 18.8237C121.106 18.0923 121.202 17.2971 121.127 16.551C120.924 14.5198 118.996 13.5737 117.194 14.5647C115.932 15.2593 115.324 16.4194 115.042 17.7629C114.752 19.1462 114.892 20.5112 115.345 21.8525C115.436 22.1226 115.449 22.4556 115.385 22.7332C114.566 26.2871 113.691 29.8293 112.915 33.3921C112.688 34.4314 112.73 35.5303 112.655 36.6021C112.641 36.8066 112.653 37.0142 112.653 37.2878C104.032 33.7009 98.4193 23.4795 101.989 13.0984C105.519 2.82935 116.941 -2.5481 127.225 1.25415C137.539 5.06616 142.64 16.395 138.642 26.5503C135.353 34.9058 127.668 38.9697 120.476 38.9702C118.618 38.9702 116.793 38.6992 115.085 38.1606ZM9.49823 19.501C9.49823 13.9626 14.0253 9.45679 19.588 9.45679C25.1507 9.45679 29.6778 13.9626 29.6778 19.501C29.6778 25.0393 25.1507 29.5449 19.588 29.5449C14.0253 29.5449 9.49823 25.0393 9.49823 19.501ZM13.7614 19.501C13.7614 22.6992 16.3761 25.3013 19.588 25.3013C22.8 25.3013 25.4138 22.6992 25.4138 19.501C25.4138 16.3035 22.8 13.7014 19.588 13.7014C16.3761 13.7014 13.7614 16.3035 13.7614 19.501ZM27.6096 9.15967C27.6096 7.84546 28.6802 6.77979 30.0002 6.77979C31.3203 6.77979 32.39 7.84546 32.39 9.15967C32.39 10.4739 31.3203 11.5398 30.0002 11.5398C28.6802 11.5398 27.6096 10.4739 27.6096 9.15967Z" fill="black"/>
</svg>
